<?xml version="1.0" encoding="UTF-8"?>
<svg width="14px" height="19px" viewBox="0 0 14 19" version="1.1" xmlns="http://www.w3.org/2000/svg" xmlns:xlink="http://www.w3.org/1999/xlink">
    <!-- Generator: Sketch 49.1 (51147) - http://www.bohemiancoding.com/sketch -->
    <title>Fill 1</title>
    <desc>Created with Sketch.</desc>
    <defs></defs>
    <g id="Page-1" stroke="none" stroke-width="1" fill="none" fill-rule="evenodd">
        <g id="1-工作台" transform="translate(-1183.000000, -34.000000)" fill="#333333">
            <g id="Group-3" transform="translate(218.000000, 0.000000)">
                <g id="Group-2">
                    <path d="M978.332603,49.1667308 L977.82267,49.1667308 L977.82267,40.9999858 C977.82267,37.999484 975.561081,35.5294517 972.651214,35.2031493 L972.651214,34.6562736 C972.651214,34.2934672 972.358065,34 971.995652,34 C971.633329,34 971.340089,34.2934672 971.340089,34.6562736 L971.340089,35.2031493 C968.430245,35.5294517 966.168633,37.999484 966.168633,40.9999858 L966.168633,49.1667308 L965.658814,49.1667308 C965.296401,49.1667308 965.003252,49.4601751 965.003252,49.8228904 C965.003252,50.1856968 965.296401,50.479164 965.658814,50.479164 L970.684641,50.479164 L970.684641,51.3542334 C970.684641,52.0797324 971.270916,52.6666667 971.995652,52.6666667 C972.720387,52.6666667 973.306776,52.0797324 973.306776,51.3542334 L973.306776,50.479164 L978.332603,50.479164 C978.694925,50.479164 978.988051,50.1856968 978.988051,49.8228904 C978.988051,49.4601751 978.694925,49.1667308 978.332603,49.1667308 Z M976.511659,49.1667308 L967.479758,49.1667308 L967.479758,40.9999858 C967.479758,38.5026552 969.501028,36.4791925 971.995652,36.4791925 C974.490389,36.4791925 976.511659,38.5026552 976.511659,40.9999858 L976.511659,49.1667308 Z" id="Fill-1"></path>
                </g>
            </g>
        </g>
    </g>
</svg>