<?xml version="1.0" encoding="UTF-8"?>
<svg width="10px" height="6px" viewBox="0 0 10 6" version="1.1" xmlns="http://www.w3.org/2000/svg" xmlns:xlink="http://www.w3.org/1999/xlink">
    <!-- Generator: Sketch 49.1 (51147) - http://www.bohemiancoding.com/sketch -->
    <title>Combined Shape</title>
    <desc>Created with Sketch.</desc>
    <defs></defs>
    <g id="Page-1" stroke="none" stroke-width="1" fill="none" fill-rule="evenodd">
        <g id="导航展开样式" transform="translate(-163.000000, -137.000000)" fill="#FFFFFF">
            <g id="侧导航">
                <path d="M167.998325,141.806146 L172.196164,137.143974 C172.36939,136.951586 172.66578,136.936053 172.858168,137.109279 C173.050556,137.282506 173.066089,137.578896 172.892862,137.771284 L168.428073,142.729934 C168.402637,142.780441 168.367567,142.827165 168.323011,142.867283 C168.230429,142.950645 168.113761,142.990293 167.998325,142.987555 C167.882888,142.990293 167.766221,142.950645 167.673638,142.867283 C167.629082,142.827165 167.594013,142.780441 167.568576,142.729934 L163.103788,137.771284 C162.930561,137.578896 162.946094,137.282506 163.138482,137.109279 C163.33087,136.936053 163.627259,136.951586 163.800486,137.143974 L167.998325,141.806146 Z" id="Combined-Shape" transform="translate(167.998325, 139.988281) scale(1, -1) translate(-167.998325, -139.988281) "></path>
            </g>
        </g>
    </g>
</svg>