<?xml version="1.0" encoding="UTF-8"?>
<svg width="15px" height="16px" viewBox="0 0 15 16" version="1.1" xmlns="http://www.w3.org/2000/svg" xmlns:xlink="http://www.w3.org/1999/xlink">
    <!-- Generator: Sketch 49.1 (51147) - http://www.bohemiancoding.com/sketch -->
    <title>Group 21</title>
    <desc>Created with Sketch.</desc>
    <defs></defs>
    <g id="Page-1" stroke="none" stroke-width="1" fill="none" fill-rule="evenodd">
        <g id="1-工作台" transform="translate(-1336.000000, -37.000000)" fill="#333333" fill-rule="nonzero">
            <g id="Group-3" transform="translate(218.000000, 0.000000)">
                <g id="Group-2">
                    <g id="Group-21" transform="translate(1119.000000, 38.000000)">
                        <path d="M7.05499439,14.1414141 L1.25230079,14.1414141 C0.559371493,14.1414141 0,13.5773288 0,12.8843996 L0,1.25701459 C0,0.564085297 0.559371493,0 1.25230079,0 L7.05499439,0 L7.05499439,0.628507295 L1.25230079,0.628507295 C0.905050505,0.628507295 0.628507295,0.90976431 0.628507295,1.25701459 L0.628507295,12.8843996 C0.628507295,13.2316498 0.905050505,13.5129068 1.25230079,13.5129068 L7.05499439,13.5129068 L7.05499439,14.1414141 Z" id="Shape" stroke="#666666"></path>
                        <polygon id="Shape" points="3.81818182 6.53647587 13.2615039 6.53647587 13.2615039 7.60493827 3.81818182 7.60493827"></polygon>
                        <polygon id="Shape" points="9.32533558 10.3970191 13.3250932 6.3972615 13.9917194 7.06388777 9.99196184 11.0636453"></polygon>
                        <polygon id="Shape" points="13.3249517 7.7298541 9.32519416 3.73009652 9.99182043 3.06347026 13.991578 7.06322783"></polygon>
                    </g>
                </g>
            </g>
        </g>
    </g>
</svg>