<?xml version="1.0" encoding="UTF-8"?>
<svg width="21px" height="14px" viewBox="0 0 21 14" version="1.1" xmlns="http://www.w3.org/2000/svg" xmlns:xlink="http://www.w3.org/1999/xlink">
    <!-- Generator: Sketch 49.1 (51147) - http://www.bohemiancoding.com/sketch -->
    <title>Group 6</title>
    <desc>Created with Sketch.</desc>
    <defs></defs>
    <g id="Page-1" stroke="none" stroke-width="1" fill="none" fill-rule="evenodd">
        <g id="导航展开样式" transform="translate(-23.000000, -336.000000)" fill-rule="nonzero" stroke="#FFFFFF">
            <g id="侧导航">
                <g id="Group-6" transform="translate(24.000000, 337.000000)">
                    <path d="M7.08895363,12.0275609 L8.83049202,12.0279281 M10.5053529,12.0280532 L15.5277954,12.028777 L15.6092017,12.0251015 C17.5022591,11.9396308 19,10.3768754 19,8.47482014 C19,6.51202398 17.4088393,4.92086331 15.4460432,4.92086331 C15.4346131,4.92086331 15.3688819,4.92167272 15.2488496,4.92329153 L15.2238917,4.77962534 C14.7468229,2.03345131 12.3529367,0 9.53417266,0 C6.71483677,0 4.32061799,2.03426257 3.84418801,4.78115554 L3.81880485,4.92750405 L3.67034808,4.92273148 C3.63163383,4.92148689 3.59283365,4.92086331 3.55395683,4.92086331 C1.59116067,4.92086331 0,6.51202398 0,8.47482014 C0,10.1356493 1.14855099,11.5644989 2.74440764,11.9362022 C3.00765307,11.9975167 3.27870219,12.028777 3.55395683,12.028777 C3.56121354,12.028777 3.6295593,12.0282117 3.75899411,12.027081 L5.41796113,12.0273201" id="Combined-Shape" stroke-linecap="round" stroke-linejoin="round"></path>
                    <g id="Group-4" transform="translate(6.151079, 5.330935)" fill="#FFFFFF" stroke-width="0.4">
                        <path d="M4.59023944,4.77272727 C4.16931294,4.77272727 3.77822825,4.67788893 3.46253338,4.49598588 C3.41541475,4.46644607 2.5170194,3.87875929 1.67045455,3.05475401 L1.92646581,2.79977879 C2.74475948,3.59579898 3.64472545,4.18504049 3.65257855,4.18970467 C3.90544857,4.33429428 4.23213779,4.41358535 4.59023944,4.41358535 C5.20435234,4.41358535 5.78077034,4.14461759 6.17028441,3.67509006 C6.5613691,3.20556252 6.7168606,2.58833593 6.59749338,1.97888297 C6.43886064,1.16731551 5.7776291,0.529877469 4.95148232,0.389952045 C4.34836376,0.288894794 3.75466893,0.441258034 3.28819443,0.822166133 L3.0573131,0.545424738 C3.59917743,0.102327562 4.31223948,-0.0842396701 5.01273655,0.0354743038 C5.98652172,0.198720632 6.76712048,0.952763195 6.95402441,1.90892026 C7.0938097,2.62409465 6.91161763,3.35015213 6.45142561,3.90363492 C5.99123358,4.45711771 5.31272521,4.77272727 4.59023944,4.77272727 Z" id="Shape"></path>
                        <path d="M2.40936546,4.69318182 L1.81912557,4.69318182 C0.815093174,4.69318182 0,3.87341982 0,2.86363636 C0,1.85385291 0.815093174,1.03409091 1.81912557,1.03409091 C2.23291808,1.03409091 2.63578023,1.17699961 2.95744535,1.43611978 L4.13636364,2.47888217 L3.89745702,2.75056574 L2.72478465,1.71408506 C2.47026322,1.50835934 2.15328254,1.39685915 1.81756409,1.39685915 C1.01340128,1.39685915 0.359140671,2.05486734 0.359140671,2.86363636 C0.359140671,3.67240538 1.01340128,4.33041358 1.81756409,4.33041358 L2.40780397,4.33041358 L2.40780397,4.69318182 L2.40936546,4.69318182 Z" id="Shape"></path>
                    </g>
                </g>
            </g>
        </g>
    </g>
</svg>