<?xml version="1.0" encoding="UTF-8"?>
<svg width="40px" height="40px" viewBox="0 0 40 40" version="1.1" xmlns="http://www.w3.org/2000/svg" xmlns:xlink="http://www.w3.org/1999/xlink">
    <!-- Generator: Sketch 49.1 (51147) - http://www.bohemiancoding.com/sketch -->
    <title>Shape Copy 3</title>
    <desc>Created with Sketch.</desc>
    <defs></defs>
    <g id="Page-1" stroke="none" stroke-width="1" fill="none" fill-rule="evenodd">
        <g id="4-2-新财税-订单详情-copy" transform="translate(-694.000000, -246.000000)" fill="#52C41A">
            <g id="Group-15">
                <path d="M721.619583,274.586225 L708.920153,261.717602 L705.608608,267.574098 C705.224716,268.251807 704.375503,268.48685 703.704663,268.099029 C703.033822,267.711207 702.801161,266.853299 703.185052,266.175591 L707.403977,258.712965 C707.659905,258.258548 708.132983,258 708.617694,258 C708.854233,258 709.090772,258.058761 709.307922,258.184117 C709.432008,258.258548 709.544461,258.34473 709.637526,258.446582 C709.641403,258.4505 709.649159,258.458334 709.653036,258.462252 L723.593326,272.588356 C724.136203,273.140708 724.136203,274.033873 723.589448,274.582307 C723.046572,275.138576 722.166337,275.138576 721.619583,274.586225 L721.619583,274.586225 Z M714,286 C702.953125,286 694,277.046875 694,266 C694,254.953125 702.953125,246 714,246 C725.046875,246 734,254.953125 734,266 C734,277.046875 725.046875,286 714,286 L714,286 Z" id="Shape-Copy-3" transform="translate(714.000000, 266.000000) scale(1, -1) translate(-714.000000, -266.000000) "></path>
            </g>
        </g>
    </g>
</svg>