<?xml version="1.0" encoding="UTF-8"?>
<svg width="18px" height="19px" viewBox="0 0 18 19" version="1.1" xmlns="http://www.w3.org/2000/svg" xmlns:xlink="http://www.w3.org/1999/xlink">
    <!-- Generator: Sketch 49.1 (51147) - http://www.bohemiancoding.com/sketch -->
    <title>客户-4</title>
    <desc>Created with Sketch.</desc>
    <defs></defs>
    <g id="Page-1" stroke="none" stroke-width="1" fill="none" fill-rule="evenodd">
        <g id="导航展开样式" transform="translate(-25.000000, -447.000000)">
            <g id="侧导航">
                <g id="客户-4" transform="translate(26.000000, 448.000000)">
                    <path d="M4.91360922,8.09634972 C1.50422622,9.54368867 -2.26551834,16.53085 1.72021651,16.502973 C4.7570748,16.5245796 6.80003022,16.5245796 7.84908276,16.502973" id="Path-3" stroke="#FFFFFF"></path>
                    <path d="M7.9778157,9.22525597 C10.5252998,9.22525597 12.5904437,7.16011208 12.5904437,4.61262799 C12.5904437,2.06514389 10.5252998,1.42251272e-16 7.9778157,0 C5.43033161,-1.42251272e-16 3.36518771,2.06514389 3.36518771,4.61262799 C3.36518771,7.16011208 5.43033161,9.22525597 7.9778157,9.22525597 Z" id="Path" stroke="#FFFFFF"></path>
                    <path d="M7.35148464,9.86464164 L8.55511945,9.86464164 C8.77246166,9.86479571 8.95636301,10.0252914 8.9859215,10.2406143 L9.44805461,13.5939078 C9.46683502,13.7302188 9.42003849,13.867381 9.32186007,13.9637884 C8.65346416,14.6217406 8.20090444,14.9507167 7.96244027,14.951587 C7.72484642,14.951587 7.26967577,14.6226109 6.59692833,13.9629181 C6.49927716,13.8668994 6.45252513,13.7305124 6.47073379,13.5947782 L6.92068259,10.2414846 C6.94984506,10.0258162 7.13385361,9.86485522 7.35148464,9.86464164 Z" id="Path" stroke="#FFFFFF"></path>
                    <path d="M11.0819113,10.8498294 C10.8415826,10.8498294 10.6467577,10.6550045 10.6467577,10.4146758 C10.6467577,10.1743471 10.8415826,9.97952218 11.0819113,9.97952218 L15.4334471,9.97952218 C15.6737758,9.97952218 15.8686007,10.1743471 15.8686007,10.4146758 C15.8686007,10.6550045 15.6737758,10.8498294 15.4334471,10.8498294 L11.0819113,10.8498294 Z" id="Path" fill="#FFFFFF"></path>
                    <path d="M11.0819113,13.8959044 C10.9264459,13.8959044 10.7827899,13.8129646 10.7050572,13.6783277 C10.6273245,13.5436907 10.6273245,13.377811 10.7050572,13.2431741 C10.7827899,13.1085371 10.9264459,13.0255973 11.0819113,13.0255973 L15.8686007,13.0255973 C16.0240661,13.0255973 16.1677221,13.1085371 16.2454548,13.2431741 C16.3231875,13.377811 16.3231875,13.5436907 16.2454548,13.6783277 C16.1677221,13.8129646 16.0240661,13.8959044 15.8686007,13.8959044 L11.0819113,13.8959044 Z" id="Path" fill="#FFFFFF"></path>
                    <path d="M10.7337884,16.9332765 C10.4934597,16.9332765 10.2986348,16.7384516 10.2986348,16.4981229 C10.2986348,16.2577942 10.4934597,16.0629693 10.7337884,16.0629693 L16.5648464,16.0716724 C16.8051751,16.0716724 17,16.2664973 17,16.5068259 C17,16.7471546 16.8051751,16.9419795 16.5648464,16.9419795 L10.7337884,16.9332765 Z" id="Path" fill="#FFFFFF"></path>
                </g>
            </g>
        </g>
    </g>
</svg>