<?xml version="1.0" encoding="UTF-8"?>
<svg width="28px" height="31px" viewBox="0 0 28 31" version="1.1" xmlns="http://www.w3.org/2000/svg" xmlns:xlink="http://www.w3.org/1999/xlink">
    <!-- Generator: Sketch 49.1 (51147) - http://www.bohemiancoding.com/sketch -->
    <title>账号 copy</title>
    <desc>Created with Sketch.</desc>
    <defs></defs>
    <g id="Page-1" stroke="none" stroke-width="1" fill="none" fill-rule="evenodd">
        <g id="0-登陆页" transform="translate(-710.000000, -455.000000)" fill="#DDDDDD">
            <g id="账号-copy" transform="translate(710.000000, 455.000000)">
                <path d="M7.64058668,11 L5.50394602,11 L5.50394602,9 L5.51935896,9 C5.50911391,8.83178364 5.50394602,8.66358463 5.50394602,8.49583499 C5.50394602,7.39079141 5.72820488,6.26624706 6.15072153,5.24570683 C6.56998803,4.22516657 7.20701317,3.27287902 7.99029405,2.48959815 C8.77032481,1.7063173 9.7258625,1.06929216 10.7464027,0.646775512 C12.7907333,-0.198257821 15.2055785,-0.198257821 17.2499091,0.646775512 C18.2704494,1.07254228 19.2259871,1.70956738 20.0060178,2.48959815 C20.7892987,3.27287906 21.4263238,4.2251666 21.8488405,5.24570683 C22.2713571,6.26624709 22.4956159,7.39079145 22.495616,8.49583499 C22.495616,8.66358463 22.4904481,8.83178364 22.4802032,9 L22.495616,9 L22.495616,11 L19.7233205,11 L19.7233205,10.7281333 L19.3927644,10.7281333 C19.3992794,10.6211589 19.4025659,10.5141955 19.4025659,10.4075179 C19.4025658,9.70478388 19.2599522,8.98964861 18.9912598,8.34065302 C18.7225673,7.69165744 18.3174618,7.08606602 17.8193474,6.58795156 C17.3232998,6.09190398 16.7156415,5.68679847 16.0666459,5.41603918 C14.7665879,4.87865429 13.2309073,4.87865429 11.9308492,5.41603918 C11.2818537,5.68473161 10.6741954,6.08983715 10.1781478,6.58795156 C9.68003334,7.086066 9.2749278,7.69165742 9.00830224,8.34065302 C8.73960981,8.98964859 8.59699612,9.70478386 8.59699612,10.4075179 C8.59699612,10.5141955 8.60028256,10.6211589 8.60679759,10.7281333 L7.64058668,10.7281333 L7.64058668,11 Z" id="Combined-Shape" fill-rule="nonzero"></path>
                <path d="M20.8087995,13 C24.7707057,13 27.9915826,16.8789832 27.9915827,21.6504065 C27.9915827,26.4218298 24.7707057,30.300813 20.8087995,30.300813 L7.19076254,30.300813 C3.23210644,30.300813 0.00797931707,26.4218298 0.00797931707,21.6504065 C0.00797931707,16.8828974 3.22885633,13 7.19076254,13 L20.8087995,13 Z M11.7654408,19.8916841 L11.7654408,23.4091289 C11.7654408,24.4324619 12.7683663,25.2643922 13.999781,25.2643922 C15.2322067,25.2643922 16.2341212,24.4316224 16.2341212,23.4091289 L16.2341212,19.8916841 C16.2341212,18.8683511 15.2322067,18.0364208 13.999781,18.0364208 C12.7673553,18.0364208 11.7654408,18.8683511 11.7654408,19.8916841 Z" id="Combined-Shape"></path>
            </g>
        </g>
    </g>
</svg>