<?xml version="1.0" encoding="UTF-8"?>
<svg width="17px" height="17px" viewBox="0 0 17 17" version="1.1" xmlns="http://www.w3.org/2000/svg" xmlns:xlink="http://www.w3.org/1999/xlink">
    <!-- Generator: Sketch 49.1 (51147) - http://www.bohemiancoding.com/sketch -->
    <title>Group 11</title>
    <desc>Created with Sketch.</desc>
    <defs></defs>
    <g id="Page-1" stroke="none" stroke-width="1" fill="none" fill-rule="evenodd">
        <g id="导航展开样式" transform="translate(-25.000000, -558.000000)" stroke="#FFFFFF">
            <g id="侧导航">
                <g id="Group-11" transform="translate(25.000000, 558.000000)">
                    <path d="M16.5,13.5763889 L16.5,2.59722222 C16.5,1.43895837 15.5610416,0.5 14.4027778,0.5 C12.2016802,0.5 12.2016802,0.5 11.1350369,0.5 C9.73604187,0.5 9.73604187,0.5 8.95096303,0.5 C8.76123043,0.5 8.76123043,0.5 8.5628323,0.5 C7.03775707,0.5 7.03775707,0.5 5.79544406,0.5 C5.01957181,0.5 5.01957181,0.5 3.92813858,0.5 C3.73524212,0.5 3.73524212,0.5 3.54408773,0.5 C3.19037633,0.5 3.19037633,0.5 2.59722222,0.5 C1.43895837,0.5 0.5,1.43895837 0.5,2.59722222 L0.5,13.5763889 C0.5,14.7346527 1.43895837,15.6736111 2.59722222,15.6736111 L14.4027778,15.6736111 C15.5610416,15.6736111 16.5,14.7346527 16.5,13.5763889 Z" id="Rectangle-4"></path>
                    <path d="M8.53366119,3.57876462 L16.5,5.69950168 L16.5,5.67598684 C16.5,4.51772299 15.5610416,3.57876462 14.4027778,3.57876462 L8.53366119,3.57876462 Z" id="Rectangle-4"></path>
                    <polyline id="Path-2" points="5.45199924 5.12365723 8.51844618 8.03896077 11.6698608 5.12365723"></polyline>
                    <polyline id="Line-2" stroke-linecap="square" points="8.65347222 7.99826389 8.65347222 10.327832 8.65347222 14.078125"></polyline>
                    <polyline id="Line-3" stroke-linecap="square" points="4.27951389 9.71597222 9.82272949 9.71597222 12.8385417 9.71597222"></polyline>
                    <polyline id="Line-3" stroke-linecap="square" points="4.27951389 12.1361111 8.57138672 12.1361111 12.8385417 12.1361111"></polyline>
                </g>
            </g>
        </g>
    </g>
</svg>