<?xml version="1.0" encoding="UTF-8"?>
<svg width="28px" height="34px" viewBox="0 0 28 34" version="1.1" xmlns="http://www.w3.org/2000/svg" xmlns:xlink="http://www.w3.org/1999/xlink">
    <!-- Generator: Sketch 49.1 (51147) - http://www.bohemiancoding.com/sketch -->
    <title>账号</title>
    <desc>Created with Sketch.</desc>
    <defs></defs>
    <g id="Page-1" stroke="none" stroke-width="1" fill="none" fill-rule="evenodd">
        <g id="0-登陆页" transform="translate(-710.000000, -362.000000)" fill="#DDDDDD" fill-rule="nonzero">
            <g id="账号" transform="translate(710.000000, 362.000000)">
                <path d="M7.9935442,14.5020718 C8.77682507,15.2853527 9.72911262,15.9223778 10.7496528,16.3448945 C11.7701931,16.7674111 12.8947374,16.99167 13.999781,16.99167 C15.1048246,16.9916699 16.2293689,16.7674111 17.2499091,16.3448945 C18.2704494,15.9223778 19.2227369,15.2853527 20.0060178,14.5020718 C20.7892987,13.7187909 21.4263238,12.7665034 21.8488405,11.7459631 C22.2713571,10.7254229 22.495616,9.60087854 22.495616,8.49583499 C22.4956159,7.39079145 22.2713571,6.26624709 21.8488405,5.24570683 C21.4263238,4.2251666 20.7892987,3.27287906 20.0060178,2.48959815 C19.2259871,1.70956738 18.2704494,1.07254228 17.2499091,0.646775512 C15.2055785,-0.198257821 12.7907333,-0.198257821 10.7464027,0.646775512 C9.7258625,1.06929216 8.77032481,1.7063173 7.99029405,2.48959815 C7.20701317,3.27287902 6.56998803,4.22516657 6.15072153,5.24570683 C5.72820488,6.26624706 5.50394602,7.39079141 5.50394602,8.49583499 C5.50394602,9.60087857 5.72820485,10.7254229 6.15072153,11.7459631 C6.57323818,12.7665033 7.21026332,13.722041 7.9935442,14.5020718 Z M20.8087995,18.9352466 L7.19076254,18.9352466 C3.22885633,18.9352466 0.00797931707,22.1593737 0.00797931707,26.1180298 C0.00797931707,30.079936 3.23210644,33.300813 7.19076254,33.300813 L20.8087995,33.300813 C24.7707057,33.300813 27.9915827,30.079936 27.9915827,26.1180298 C27.9915826,22.1561236 24.7707057,18.9352466 20.8087995,18.9352466 Z" id="Shape"></path>
            </g>
        </g>
    </g>
</svg>